<svg width="18" height="18" viewBox="0 0 18 18" fill="none" xmlns="http://www.w3.org/2000/svg">
<path d="M6.87305 13.9658C6.68555 13.9658 6.54492 13.8809 6.45117 13.7109C6.41602 13.6465 6.35449 13.5352 6.2666 13.377C6.17871 13.2188 6.08789 13.0547 5.99414 12.8848C5.90039 12.7148 5.81543 12.5537 5.73926 12.4014C5.66309 12.249 5.625 12.1465 5.625 12.0938C5.625 12 5.64551 11.9004 5.68652 11.7949C5.72754 11.6895 5.78027 11.584 5.84473 11.4785C5.90918 11.373 5.9707 11.2734 6.0293 11.1797C6.08789 11.0859 6.14062 11.0039 6.1875 10.9336L5.625 10.4854H7.35645L7.76953 12.1904L7.09277 11.6543L6.60938 12.6299H8.21777V13.9658H6.87305ZM8.90332 8.30566L8.16504 9.75586L7.04883 9.19336L7.57617 8.14746C7.6582 7.97168 7.79883 7.88379 7.99805 7.88379L9.94043 7.875C10.1279 7.875 10.2686 7.96289 10.3623 8.13867L10.8369 9.02637L11.3467 8.63965L11.083 10.459L9.16699 10.2832L9.71191 9.87891L8.90332 8.30566ZM9.97559 14.625L8.88574 13.166L9.97559 11.8301V12.7354H11.4082L10.8193 11.6543L11.8916 11.0215C11.915 11.0742 11.9531 11.1475 12.0059 11.2412C12.0586 11.335 12.1143 11.4375 12.1729 11.5488C12.2314 11.6602 12.2783 11.7627 12.3135 11.8564C12.3486 11.9502 12.3691 12.0293 12.375 12.0938C12.375 12.1641 12.3574 12.2344 12.3223 12.3047L11.5752 13.7812C11.5342 13.8633 11.4756 13.9248 11.3994 13.9658C11.3232 14.0068 11.2412 14.0303 11.1533 14.0361H9.97559V14.625ZM15.2402 5.625H16.4004L14.0186 16.2686C13.2568 16.8369 12.4717 17.2676 11.6631 17.5605C10.8545 17.8535 9.96973 18 9.00879 18C8.05957 18 7.17773 17.8535 6.36328 17.5605C5.54883 17.2676 4.76367 16.8369 4.00781 16.2686L1.2041 3.87598L1.15137 3.62988C1.13379 3.54785 1.125 3.46289 1.125 3.375C1.125 3.03516 1.20996 2.72754 1.37988 2.45215C1.5498 2.17676 1.77832 1.92773 2.06543 1.70508C2.35254 1.48242 2.67188 1.29199 3.02344 1.13379C3.375 0.975586 3.73535 0.832031 4.10449 0.703125C4.47363 0.574219 4.82812 0.477539 5.16797 0.413086C5.50781 0.348633 5.80957 0.290039 6.07324 0.237305C7.04004 0.0791016 8.01562 0 9 0C9.29883 0 9.59473 0.00585938 9.8877 0.0175781C10.1807 0.0292969 10.4795 0.0527344 10.7842 0.0878906C10.3975 0.205078 10.0254 0.348633 9.66797 0.518555C9.31055 0.688477 8.96484 0.893555 8.63086 1.13379C8.34961 1.13965 8.03906 1.1543 7.69922 1.17773C7.35938 1.20117 7.00781 1.23633 6.64453 1.2832C6.28125 1.33008 5.91211 1.3916 5.53711 1.46777C5.16211 1.54395 4.80176 1.6377 4.45605 1.74902C4.11035 1.86035 3.78516 1.98926 3.48047 2.13574C3.17578 2.28223 2.91211 2.45215 2.68945 2.64551C2.58398 2.73926 2.48438 2.84766 2.39062 2.9707C2.29688 3.09375 2.25 3.22852 2.25 3.375C2.25 3.46289 2.26758 3.54492 2.30273 3.62109C2.33789 3.69727 2.38477 3.77344 2.44336 3.84961C2.50195 3.92578 2.56348 3.99316 2.62793 4.05176C2.69238 4.11035 2.75977 4.16602 2.83008 4.21875C3.07617 4.40625 3.35742 4.57031 3.67383 4.71094C3.99023 4.85156 4.33008 4.97168 4.69336 5.07129C5.05664 5.1709 5.42578 5.25879 5.80078 5.33496C6.17578 5.41113 6.55371 5.4668 6.93457 5.50195C7.31543 5.53711 7.67871 5.56934 8.02441 5.59863C8.37012 5.62793 8.69531 5.63672 9 5.625H9.19336C9.25781 5.625 9.32227 5.62207 9.38672 5.61621L9.39551 5.625H14.9502C14.5166 5.83008 14.0537 6.00293 13.5615 6.14355C13.0693 6.28418 12.5625 6.40137 12.041 6.49512C11.5195 6.58887 11.001 6.65332 10.4854 6.68848C9.96973 6.72363 9.47461 6.74414 9 6.75C8.50781 6.75 7.98633 6.72949 7.43555 6.68848C6.88477 6.64746 6.33398 6.57422 5.7832 6.46875C5.23242 6.36328 4.69336 6.23145 4.16602 6.07324C3.63867 5.91504 3.1582 5.71289 2.72461 5.4668L5.00977 15.6094C5.5957 16.0195 6.23145 16.3271 6.91699 16.5322C7.60254 16.7373 8.30273 16.8428 9.01758 16.8486C9.72656 16.8486 10.4209 16.7461 11.1006 16.541C11.7803 16.3359 12.416 16.0254 13.0078 15.6094L15.2402 5.625ZM18 0V4.5H13.5V3.375H16.0664C15.6211 3.02344 15.1318 2.75684 14.5986 2.5752C14.0654 2.39355 13.5146 2.30273 12.9463 2.30273C12.2783 2.30273 11.6396 2.42871 11.0303 2.68066C10.4209 2.93262 9.87598 3.2959 9.39551 3.77051L8.60449 2.97949C9.18457 2.39941 9.84668 1.9541 10.5908 1.64355C11.335 1.33301 12.1201 1.17773 12.9463 1.17773C13.6611 1.17773 14.3555 1.29785 15.0293 1.53809C15.7031 1.77832 16.3184 2.12695 16.875 2.58398V0H18Z" fill="#0761AD"/>
</svg>