<svg width="18" height="18" viewBox="0 0 18 18" fill="none" xmlns="http://www.w3.org/2000/svg">
<path d="M12 1.5V3M8.25 1.5V3M4.5 1.5V3M14.625 9.375V7.5C14.625 5.025 14.625 3.7875 13.8563 3.01875C13.0875 2.25 11.85 2.25 9.375 2.25H7.125C4.65 2.25 3.4125 2.25 2.64375 3.01875C1.875 3.7875 1.875 5.025 1.875 7.5V11.25C1.875 13.725 1.875 14.9625 2.64375 15.7313C3.4125 16.5 4.65 16.5 7.125 16.5H8.625M16.125 11.25L13.5 13.875M13.5 13.875L10.875 16.5M13.5 13.875L16.125 16.5M13.5 13.875L10.875 11.25M5.25 11.25H8.25M5.25 7.5H11.25" stroke="black" stroke-width="1.5" stroke-linecap="round" stroke-linejoin="round"/>
</svg>
